<?xml version="1.0" encoding="UTF-8" standalone="no"?><!DOCTYPE svg PUBLIC "-//W3C//DTD SVG 1.1//EN" "http://www.w3.org/Graphics/SVG/1.1/DTD/svg11.dtd"><svg width="100%" height="100%" viewBox="0 0 33 33" version="1.1" xmlns="http://www.w3.org/2000/svg" xmlns:xlink="http://www.w3.org/1999/xlink" xml:space="preserve" xmlns:serif="http://www.serif.com/" style="fill-rule:evenodd;clip-rule:evenodd;stroke-linejoin:round;stroke-miterlimit:1.41421;"><path d="M28.86,17.342l-3.64,-6.402c-0.292,-0.433 -0.712,-0.729 -1.163,-0.8c-0.313,-0.058 -0.636,0.019 -0.889,0.213c-0.63,0.488 -0.742,1.181 -0.33,2.061l1.222,2.587l1.4,2.46c2.234,4.085 1.511,8.007 -2.145,11.663c-0.26,0.26 -0.526,0.49 -0.797,0.707c1.42,-0.084 2.881,-0.683 4.292,-2.094c3.822,-3.823 3.565,-7.876 2.05,-10.395Zm-6.252,11.075c3.352,-3.35 3.998,-6.775 1.978,-10.469l-3.378,-5.945c-0.292,-0.432 -0.712,-0.728 -1.163,-0.8c-0.313,-0.059 -0.637,0.019 -0.89,0.213c-0.63,0.49 -0.742,1.182 -0.33,2.061l1.72,3.638c0.029,0.065 0.045,0.135 0.045,0.207c0,0.275 -0.227,0.502 -0.502,0.502c-0.13,0 -0.255,-0.051 -0.349,-0.141l-8.91,-8.91c-0.247,-0.228 -0.57,-0.355 -0.906,-0.355c-0.733,0 -1.335,0.603 -1.335,1.335c0,0.336 0.126,0.659 0.354,0.906l5.292,5.292c0.09,0.093 0.14,0.218 0.14,0.347c0,0.275 -0.225,0.5 -0.5,0.5c-0.129,0 -0.254,-0.05 -0.347,-0.14l-5.292,-5.292l-1.492,-1.492c-0.503,-0.503 -1.382,-0.505 -1.887,0c-0.516,0.518 -0.516,1.368 0,1.886l1.493,1.492l5.292,5.292c0.095,0.094 0.148,0.222 0.148,0.355c0,0.274 -0.225,0.499 -0.499,0.499c0,0 -0.001,0 -0.002,0c-0.133,0 -0.26,-0.053 -0.354,-0.147l-5.292,-5.291c-0.518,-0.516 -1.369,-0.516 -1.887,0c-0.516,0.518 -0.516,1.369 0,1.887l2.23,2.228l3.322,3.324c0.094,0.094 0.147,0.221 0.147,0.354c0,0.274 -0.225,0.499 -0.499,0.499l-0.001,0c-0.133,0 -0.26,-0.053 -0.354,-0.146l-3.323,-3.324c-0.25,-0.25 -0.589,-0.391 -0.943,-0.391c-0.354,0 -0.693,0.141 -0.943,0.391c-0.251,0.25 -0.391,0.589 -0.39,0.943c0,0.356 0.138,0.691 0.39,0.943l6.396,6.397c3.528,3.53 8.86,5.313 12.821,1.353l0,-0.001Zm-9.878,-19.157l5.68,5.68l-0.49,-1.037c-0.518,-1.107 -0.426,-2.13 0.224,-2.89l-3.303,-3.304c-0.518,-0.516 -1.368,-0.516 -1.886,0c-0.251,0.25 -0.391,0.59 -0.39,0.944c0,0.217 0.067,0.42 0.165,0.607Zm14.787,19.184c-1.599,1.6 -3.417,2.392 -5.353,2.392c-0.349,0 -0.7,-0.03 -1.058,-0.082c-1.133,0.587 -2.391,0.891 -3.667,0.887c-3.049,0 -6.115,-1.626 -8.359,-3.87l-6.396,-6.397c-0.439,-0.436 -0.686,-1.031 -0.684,-1.65c-0.002,-1.126 0.814,-2.1 1.923,-2.296l-0.875,-0.875c-0.902,-0.906 -0.902,-2.394 0,-3.3c0.337,-0.338 0.77,-0.563 1.24,-0.647l-0.139,-0.139c-0.91,-0.91 -0.91,-2.39 0,-3.3c0.884,-0.884 2.421,-0.882 3.301,0l0.138,0.14c0.199,-1.108 1.172,-1.923 2.298,-1.923c0.619,0 1.212,0.246 1.65,0.683l0.093,0.092c0.091,-0.423 0.291,-0.828 0.62,-1.157c0.906,-0.904 2.394,-0.904 3.3,0l3.384,3.386c0.396,-0.185 0.84,-0.245 1.271,-0.173c0.534,0.086 1.03,0.354 1.441,0.765c0.11,-0.549 0.415,-1.034 0.911,-1.418c0.471,-0.364 1.075,-0.513 1.661,-0.41c0.727,0.117 1.385,0.565 1.853,1.262l3.652,6.423c1.704,2.832 2.025,7.377 -2.205,11.607Zm-14.3,-27.96l-1.917,0.882l2.37,2.837l-0.454,-3.719l0.001,0Zm8.487,0.877l-1.928,-0.86l-0.44,3.697l2.368,-2.837Zm-5.204,1.932l-1.022,-3.298l2.044,0l-1.022,3.298Z" style="fill:#6c757d;"/></svg>