<?xml version="1.0" encoding="UTF-8" standalone="no"?><!DOCTYPE svg PUBLIC "-//W3C//DTD SVG 1.1//EN" "http://www.w3.org/Graphics/SVG/1.1/DTD/svg11.dtd"><svg width="100%" height="100%" viewBox="0 0 487 487" version="1.1" xmlns="http://www.w3.org/2000/svg" xmlns:xlink="http://www.w3.org/1999/xlink" xml:space="preserve" xmlns:serif="http://www.serif.com/" style="fill-rule:evenodd;clip-rule:evenodd;stroke-linejoin:round;stroke-miterlimit:1.41421;"><path d="M462.8,181.564c-12.3,-10.5 -27.7,-16.2 -43.3,-16.2l-15.8,0l-56.9,0l-32.4,0l0,-75.9c0,-31.9 -9.3,-54.9 -27.7,-68.4c-29.1,-21.4 -69.2,-9.2 -70.9,-8.6c-5,1.6 -8.4,6.2 -8.4,11.4l0,84.9c0,27.7 -13.2,51.2 -39.3,69.9c-19.5,14 -39.4,20.1 -41.5,20.8l-2.9,0.7c-4.3,-7.3 -12.2,-12.2 -21.3,-12.2l-77.7,0c-13.6,0 -24.7,11.1 -24.7,24.7l0,228.4c0,13.6 11.1,24.7 24.7,24.7l77.9,0c7.6,0 14.5,-3.5 19,-8.9c12.5,13.3 30.2,21.6 49.4,21.6l207.8,0c45.9,0 75.2,-24 80.4,-66l26.9,-166.9c3.7,-24 -5.2,-48.6 -23.3,-64Zm-360.3,264.238c-0.042,0.789 0.149,0.671 -0.575,0.682l-82.003,0c-2.218,-0.053 -2.853,-0.208 -2.757,-2.653l-0.475,-236.417c0.005,-1.331 -0.179,-1.045 1.073,-1.098l84.837,0c0.825,-0.014 0.824,0 0.817,0.925l-0.917,239.243l0,-0.682Zm365.061,-202.339l-29.051,167.343c0.133,-0.055 0.1,-0.2 0,0c-3.7,29.9 -25.81,48.826 -59.71,48.826l-135.1,0l-6.8,0l-65.9,0c-21.3,0 -46.1,-20.968 -49.4,-41.968c-0.1,-0.7 0.2,0.7 0,0l0,-194.965c0.422,-7.03 -0.2,0 0,0c1,-0.3 33.658,-11.584 57.558,-28.584c32.7,-23.2 46.982,-49.751 46.982,-85.351l0,-81.274c10.4,-1.7 35.448,-4.816 48.348,4.784c11.8,8.7 21.202,33.39 21.202,57.19l0,86.114c0,6.6 -0.09,8.406 6.51,8.406l117.3,0c9.9,0 24.667,3.331 32.567,10.131c11.8,10.1 18.094,33.548 15.494,49.348Z" style="fill:#6c757d;fill-rule:nonzero;"/></svg>